<?xml version="1.0" encoding="UTF-8" standalone="no"?>
<!DOCTYPE svg PUBLIC "-//W3C//DTD SVG 1.1//EN"
 "http://www.w3.org/Graphics/SVG/1.1/DTD/svg11.dtd">
<!-- Generated by graphviz version 2.38.0 (20140413.2041)
 -->
<!-- Title: G Pages: 1 -->
<svg width="322pt" height="556pt"
 viewBox="0.00 0.00 321.50 556.00" xmlns="http://www.w3.org/2000/svg" xmlns:xlink="http://www.w3.org/1999/xlink">
<g id="graph0" class="graph" transform="scale(1 1) rotate(0) translate(4 552)">
<title>G</title>
<polygon fill="white" stroke="none" points="-4,4 -4,-552 317.5,-552 317.5,4 -4,4"/>
<text text-anchor="middle" x="156.75" y="-7.8" font-family="Times New Roman,serif" font-size="14.00">simpleCFunc</text>
<!-- 0 -->
<g id="node1" class="node"><title>0</title>
<path fill="none" stroke="black" d="M12,-455.5C12,-455.5 91,-455.5 91,-455.5 97,-455.5 103,-461.5 103,-467.5 103,-467.5 103,-535.5 103,-535.5 103,-541.5 97,-547.5 91,-547.5 91,-547.5 12,-547.5 12,-547.5 6,-547.5 0,-541.5 0,-535.5 0,-535.5 0,-467.5 0,-467.5 0,-461.5 6,-455.5 12,-455.5"/>
<text text-anchor="middle" x="51.5" y="-532.3" font-family="Times New Roman,serif" font-size="14.00">VarInputVertex</text>
<polyline fill="none" stroke="black" points="0,-524.5 103,-524.5 "/>
<text text-anchor="middle" x="51.5" y="-509.3" font-family="Times New Roman,serif" font-size="14.00">VertexID: 0</text>
<polyline fill="none" stroke="black" points="0,-501.5 103,-501.5 "/>
<text text-anchor="middle" x="51.5" y="-486.3" font-family="Times New Roman,serif" font-size="14.00">Type: int</text>
<polyline fill="none" stroke="black" points="0,-478.5 103,-478.5 "/>
<text text-anchor="middle" x="51.5" y="-463.3" font-family="Times New Roman,serif" font-size="14.00">val1</text>
</g>
<!-- 2 -->
<g id="node3" class="node"><title>2</title>
<path fill="none" stroke="black" d="M66,-311.5C66,-311.5 157,-311.5 157,-311.5 163,-311.5 169,-317.5 169,-323.5 169,-323.5 169,-391.5 169,-391.5 169,-397.5 163,-403.5 157,-403.5 157,-403.5 66,-403.5 66,-403.5 60,-403.5 54,-397.5 54,-391.5 54,-391.5 54,-323.5 54,-323.5 54,-317.5 60,-311.5 66,-311.5"/>
<text text-anchor="middle" x="111.5" y="-388.3" font-family="Times New Roman,serif" font-size="14.00">BinOpAddVertex</text>
<polyline fill="none" stroke="black" points="54,-380.5 169,-380.5 "/>
<text text-anchor="middle" x="111.5" y="-365.3" font-family="Times New Roman,serif" font-size="14.00">VertexID: 2</text>
<polyline fill="none" stroke="black" points="54,-357.5 169,-357.5 "/>
<text text-anchor="middle" x="111.5" y="-342.3" font-family="Times New Roman,serif" font-size="14.00">Type: int</text>
<polyline fill="none" stroke="black" points="54,-334.5 169,-334.5 "/>
<text text-anchor="middle" x="111.5" y="-319.3" font-family="Times New Roman,serif" font-size="14.00">+</text>
</g>
<!-- 0&#45;&gt;2 -->
<g id="edge2" class="edge"><title>0&#45;&gt;2</title>
<path fill="none" stroke="black" d="M70.6493,-455.18C76.2781,-441.858 82.4959,-427.143 88.3467,-413.296"/>
<polygon fill="black" stroke="black" points="91.6586,-414.45 92.3268,-403.877 85.2105,-411.726 91.6586,-414.45"/>
<text text-anchor="middle" x="110" y="-425.8" font-family="Times New Roman,serif" font-size="14.00"> val1 [int]</text>
</g>
<!-- 1 -->
<g id="node2" class="node"><title>1</title>
<path fill="none" stroke="black" d="M133,-455.5C133,-455.5 212,-455.5 212,-455.5 218,-455.5 224,-461.5 224,-467.5 224,-467.5 224,-535.5 224,-535.5 224,-541.5 218,-547.5 212,-547.5 212,-547.5 133,-547.5 133,-547.5 127,-547.5 121,-541.5 121,-535.5 121,-535.5 121,-467.5 121,-467.5 121,-461.5 127,-455.5 133,-455.5"/>
<text text-anchor="middle" x="172.5" y="-532.3" font-family="Times New Roman,serif" font-size="14.00">VarInputVertex</text>
<polyline fill="none" stroke="black" points="121,-524.5 224,-524.5 "/>
<text text-anchor="middle" x="172.5" y="-509.3" font-family="Times New Roman,serif" font-size="14.00">VertexID: 1</text>
<polyline fill="none" stroke="black" points="121,-501.5 224,-501.5 "/>
<text text-anchor="middle" x="172.5" y="-486.3" font-family="Times New Roman,serif" font-size="14.00">Type: int</text>
<polyline fill="none" stroke="black" points="121,-478.5 224,-478.5 "/>
<text text-anchor="middle" x="172.5" y="-463.3" font-family="Times New Roman,serif" font-size="14.00">val2</text>
</g>
<!-- 1&#45;&gt;2 -->
<g id="edge1" class="edge"><title>1&#45;&gt;2</title>
<path fill="none" stroke="black" d="M154.373,-455.12C149.923,-444.235 145.11,-432.674 140.5,-422 139.226,-419.052 137.906,-416.033 136.561,-412.991"/>
<polygon fill="black" stroke="black" points="139.75,-411.546 132.481,-403.838 133.356,-414.397 139.75,-411.546"/>
<text text-anchor="middle" x="174" y="-425.8" font-family="Times New Roman,serif" font-size="14.00"> val2 [int]</text>
</g>
<!-- 4 -->
<g id="node5" class="node"><title>4</title>
<path fill="none" stroke="black" d="M149.5,-167.5C149.5,-167.5 237.5,-167.5 237.5,-167.5 243.5,-167.5 249.5,-173.5 249.5,-179.5 249.5,-179.5 249.5,-247.5 249.5,-247.5 249.5,-253.5 243.5,-259.5 237.5,-259.5 237.5,-259.5 149.5,-259.5 149.5,-259.5 143.5,-259.5 137.5,-253.5 137.5,-247.5 137.5,-247.5 137.5,-179.5 137.5,-179.5 137.5,-173.5 143.5,-167.5 149.5,-167.5"/>
<text text-anchor="middle" x="193.5" y="-244.3" font-family="Times New Roman,serif" font-size="14.00">BinOpMulVertex</text>
<polyline fill="none" stroke="black" points="137.5,-236.5 249.5,-236.5 "/>
<text text-anchor="middle" x="193.5" y="-221.3" font-family="Times New Roman,serif" font-size="14.00">VertexID: 4</text>
<polyline fill="none" stroke="black" points="137.5,-213.5 249.5,-213.5 "/>
<text text-anchor="middle" x="193.5" y="-198.3" font-family="Times New Roman,serif" font-size="14.00">Type: int</text>
<polyline fill="none" stroke="black" points="137.5,-190.5 249.5,-190.5 "/>
<text text-anchor="middle" x="193.5" y="-175.3" font-family="Times New Roman,serif" font-size="14.00">*=</text>
</g>
<!-- 2&#45;&gt;4 -->
<g id="edge4" class="edge"><title>2&#45;&gt;4</title>
<path fill="none" stroke="black" d="M133.484,-311.197C139.12,-300.202 145.337,-288.571 151.5,-278 153.374,-274.785 155.344,-271.509 157.367,-268.224"/>
<polygon fill="black" stroke="black" points="160.462,-269.877 162.811,-259.545 154.532,-266.157 160.462,-269.877"/>
<text text-anchor="middle" x="183.5" y="-281.8" font-family="Times New Roman,serif" font-size="14.00"> retVal [int]</text>
</g>
<!-- 3 -->
<g id="node4" class="node"><title>3</title>
<path fill="none" stroke="black" d="M199.5,-311.5C199.5,-311.5 301.5,-311.5 301.5,-311.5 307.5,-311.5 313.5,-317.5 313.5,-323.5 313.5,-323.5 313.5,-391.5 313.5,-391.5 313.5,-397.5 307.5,-403.5 301.5,-403.5 301.5,-403.5 199.5,-403.5 199.5,-403.5 193.5,-403.5 187.5,-397.5 187.5,-391.5 187.5,-391.5 187.5,-323.5 187.5,-323.5 187.5,-317.5 193.5,-311.5 199.5,-311.5"/>
<text text-anchor="middle" x="250.5" y="-388.3" font-family="Times New Roman,serif" font-size="14.00">IntegerLiteralVertex</text>
<polyline fill="none" stroke="black" points="187.5,-380.5 313.5,-380.5 "/>
<text text-anchor="middle" x="250.5" y="-365.3" font-family="Times New Roman,serif" font-size="14.00">VertexID: 3</text>
<polyline fill="none" stroke="black" points="187.5,-357.5 313.5,-357.5 "/>
<text text-anchor="middle" x="250.5" y="-342.3" font-family="Times New Roman,serif" font-size="14.00">Type: int</text>
<polyline fill="none" stroke="black" points="187.5,-334.5 313.5,-334.5 "/>
<text text-anchor="middle" x="250.5" y="-319.3" font-family="Times New Roman,serif" font-size="14.00">Value: 10</text>
</g>
<!-- 3&#45;&gt;4 -->
<g id="edge3" class="edge"><title>3&#45;&gt;4</title>
<path fill="none" stroke="black" d="M232.308,-311.18C226.961,-297.858 221.054,-283.143 215.496,-269.296"/>
<polygon fill="black" stroke="black" points="218.688,-267.853 211.715,-259.877 212.192,-270.461 218.688,-267.853"/>
<text text-anchor="middle" x="257" y="-281.8" font-family="Times New Roman,serif" font-size="14.00"> #literal [int]</text>
</g>
<!-- 5 -->
<g id="node6" class="node"><title>5</title>
<path fill="none" stroke="black" d="M111.5,-23.5C111.5,-23.5 275.5,-23.5 275.5,-23.5 281.5,-23.5 287.5,-29.5 287.5,-35.5 287.5,-35.5 287.5,-103.5 287.5,-103.5 287.5,-109.5 281.5,-115.5 275.5,-115.5 275.5,-115.5 111.5,-115.5 111.5,-115.5 105.5,-115.5 99.5,-109.5 99.5,-103.5 99.5,-103.5 99.5,-35.5 99.5,-35.5 99.5,-29.5 105.5,-23.5 111.5,-23.5"/>
<text text-anchor="middle" x="193.5" y="-100.3" font-family="Times New Roman,serif" font-size="14.00">ReturnVertex</text>
<polyline fill="none" stroke="black" points="99.5,-92.5 287.5,-92.5 "/>
<text text-anchor="middle" x="193.5" y="-77.3" font-family="Times New Roman,serif" font-size="14.00">VertexID: 5</text>
<polyline fill="none" stroke="black" points="99.5,-69.5 287.5,-69.5 "/>
<text text-anchor="middle" x="193.5" y="-54.3" font-family="Times New Roman,serif" font-size="14.00">Type: int</text>
<polyline fill="none" stroke="black" points="99.5,-46.5 287.5,-46.5 "/>
<text text-anchor="middle" x="193.5" y="-31.3" font-family="Times New Roman,serif" font-size="14.00">values returned by the function</text>
</g>
<!-- 4&#45;&gt;5 -->
<g id="edge5" class="edge"><title>4&#45;&gt;5</title>
<path fill="none" stroke="black" d="M193.5,-167.18C193.5,-154.115 193.5,-139.709 193.5,-126.096"/>
<polygon fill="black" stroke="black" points="197,-125.877 193.5,-115.877 190,-125.877 197,-125.877"/>
<text text-anchor="middle" x="225.5" y="-137.8" font-family="Times New Roman,serif" font-size="14.00"> retVal [int]</text>
</g>
</g>
</svg>
